<mxfile host="app.diagrams.net" modified="2024-03-22T22:10:27.833Z" agent="Mozilla/5.0 (Windows NT 10.0; Win64; x64) AppleWebKit/537.36 (KHTML, like Gecko) Chrome/123.0.0.0 Safari/537.36" etag="f5X5e4V0s-OHl3XCRmiw" version="24.0.7" type="device">
  <diagram name="Страница — 1" id="XtQCuM_EeiXBvfRpiwLz">
    <mxGraphModel dx="2327" dy="757" grid="1" gridSize="10" guides="1" tooltips="1" connect="1" arrows="1" fold="1" page="1" pageScale="1" pageWidth="827" pageHeight="1169" math="0" shadow="0">
      <root>
        <mxCell id="0" />
        <mxCell id="1" parent="0" />
        <mxCell id="DRShkaIXmZ3_rg7SGFlZ-1" value="&lt;font style=&quot;font-size: 16px;&quot;&gt;&lt;b&gt;Интерфейс пользователя&lt;/b&gt;&lt;/font&gt;" style="align=center;overflow=fill;html=1;dropTarget=0;whiteSpace=wrap;fillColor=#ffe6cc;strokeColor=#d79b00;verticalAlign=middle;labelPosition=center;verticalLabelPosition=middle;spacingTop=12;horizontal=1;" vertex="1" parent="1">
          <mxGeometry x="110" y="130" width="160" height="70" as="geometry" />
        </mxCell>
        <mxCell id="DRShkaIXmZ3_rg7SGFlZ-2" value="" style="shape=component;jettyWidth=8;jettyHeight=4;" vertex="1" parent="DRShkaIXmZ3_rg7SGFlZ-1">
          <mxGeometry x="1" width="20" height="20" relative="1" as="geometry">
            <mxPoint x="-24" y="4" as="offset" />
          </mxGeometry>
        </mxCell>
        <mxCell id="DRShkaIXmZ3_rg7SGFlZ-3" value="" style="shape=providedRequiredInterface;html=1;verticalLabelPosition=bottom;sketch=0;rotation=90;" vertex="1" parent="1">
          <mxGeometry x="175" y="280" width="30" height="30" as="geometry" />
        </mxCell>
        <mxCell id="DRShkaIXmZ3_rg7SGFlZ-6" value="" style="shape=providedRequiredInterface;html=1;verticalLabelPosition=bottom;sketch=0;" vertex="1" parent="1">
          <mxGeometry x="384" y="150" width="30" height="30" as="geometry" />
        </mxCell>
        <mxCell id="DRShkaIXmZ3_rg7SGFlZ-8" value="" style="endArrow=none;html=1;rounded=0;entryX=0.5;entryY=1;entryDx=0;entryDy=0;exitX=0;exitY=0.5;exitDx=0;exitDy=0;exitPerimeter=0;" edge="1" parent="1" source="DRShkaIXmZ3_rg7SGFlZ-3" target="DRShkaIXmZ3_rg7SGFlZ-1">
          <mxGeometry width="50" height="50" relative="1" as="geometry">
            <mxPoint x="390" y="300" as="sourcePoint" />
            <mxPoint x="440" y="250" as="targetPoint" />
          </mxGeometry>
        </mxCell>
        <mxCell id="DRShkaIXmZ3_rg7SGFlZ-9" value="" style="endArrow=none;html=1;rounded=0;exitX=1;exitY=0.5;exitDx=0;exitDy=0;entryX=0;entryY=0.5;entryDx=0;entryDy=0;entryPerimeter=0;" edge="1" parent="1" source="DRShkaIXmZ3_rg7SGFlZ-1" target="DRShkaIXmZ3_rg7SGFlZ-6">
          <mxGeometry width="50" height="50" relative="1" as="geometry">
            <mxPoint x="390" y="300" as="sourcePoint" />
            <mxPoint x="440" y="250" as="targetPoint" />
          </mxGeometry>
        </mxCell>
        <mxCell id="DRShkaIXmZ3_rg7SGFlZ-10" value="&lt;font style=&quot;font-size: 14px;&quot;&gt;&lt;b&gt;Валидатор&lt;/b&gt;&lt;/font&gt;&lt;div style=&quot;font-size: 14px;&quot;&gt;&lt;font style=&quot;font-size: 14px;&quot;&gt;&lt;b&gt;на уровне&lt;/b&gt;&lt;/font&gt;&lt;/div&gt;&lt;div style=&quot;font-size: 14px;&quot;&gt;&lt;font style=&quot;font-size: 14px;&quot;&gt;&lt;b&gt;интерфейса&lt;/b&gt;&lt;/font&gt;&lt;/div&gt;&lt;div style=&quot;font-size: 14px;&quot;&gt;&lt;font style=&quot;font-size: 14px;&quot;&gt;&lt;b&gt;пользователя&lt;/b&gt;&lt;/font&gt;&lt;/div&gt;" style="align=center;overflow=fill;html=1;dropTarget=0;whiteSpace=wrap;fillColor=#ffe6cc;strokeColor=#d79b00;verticalAlign=middle;labelPosition=center;verticalLabelPosition=middle;spacingTop=12;horizontal=1;" vertex="1" parent="1">
          <mxGeometry x="500" y="130" width="150" height="70" as="geometry" />
        </mxCell>
        <mxCell id="DRShkaIXmZ3_rg7SGFlZ-11" value="" style="shape=component;jettyWidth=8;jettyHeight=4;" vertex="1" parent="DRShkaIXmZ3_rg7SGFlZ-10">
          <mxGeometry x="1" width="20" height="20" relative="1" as="geometry">
            <mxPoint x="-24" y="4" as="offset" />
          </mxGeometry>
        </mxCell>
        <mxCell id="DRShkaIXmZ3_rg7SGFlZ-12" value="" style="endArrow=none;html=1;rounded=0;entryX=0;entryY=0.5;entryDx=0;entryDy=0;exitX=1;exitY=0.5;exitDx=0;exitDy=0;exitPerimeter=0;" edge="1" parent="1" source="DRShkaIXmZ3_rg7SGFlZ-6" target="DRShkaIXmZ3_rg7SGFlZ-10">
          <mxGeometry width="50" height="50" relative="1" as="geometry">
            <mxPoint x="390" y="300" as="sourcePoint" />
            <mxPoint x="440" y="250" as="targetPoint" />
          </mxGeometry>
        </mxCell>
        <mxCell id="DRShkaIXmZ3_rg7SGFlZ-13" value="&lt;b style=&quot;font-size: 16px;&quot;&gt;&lt;font style=&quot;font-size: 16px;&quot;&gt;Обработчик&lt;/font&gt;&lt;/b&gt;&lt;div style=&quot;font-size: 16px;&quot;&gt;&lt;b style=&quot;&quot;&gt;&lt;font style=&quot;font-size: 16px;&quot;&gt;команд&lt;/font&gt;&lt;/b&gt;&lt;/div&gt;" style="align=center;overflow=fill;html=1;dropTarget=0;whiteSpace=wrap;fillColor=#ffe6cc;strokeColor=#d79b00;verticalAlign=middle;labelPosition=center;verticalLabelPosition=middle;spacingTop=12;horizontal=1;" vertex="1" parent="1">
          <mxGeometry x="110" y="370" width="160" height="70" as="geometry" />
        </mxCell>
        <mxCell id="DRShkaIXmZ3_rg7SGFlZ-14" value="" style="shape=component;jettyWidth=8;jettyHeight=4;" vertex="1" parent="DRShkaIXmZ3_rg7SGFlZ-13">
          <mxGeometry x="1" width="20" height="20" relative="1" as="geometry">
            <mxPoint x="-24" y="4" as="offset" />
          </mxGeometry>
        </mxCell>
        <mxCell id="DRShkaIXmZ3_rg7SGFlZ-15" value="" style="endArrow=none;html=1;rounded=0;entryX=1;entryY=0.5;entryDx=0;entryDy=0;entryPerimeter=0;exitX=0.5;exitY=0;exitDx=0;exitDy=0;" edge="1" parent="1" source="DRShkaIXmZ3_rg7SGFlZ-13" target="DRShkaIXmZ3_rg7SGFlZ-3">
          <mxGeometry width="50" height="50" relative="1" as="geometry">
            <mxPoint x="390" y="300" as="sourcePoint" />
            <mxPoint x="440" y="250" as="targetPoint" />
          </mxGeometry>
        </mxCell>
        <mxCell id="DRShkaIXmZ3_rg7SGFlZ-16" value="&lt;b style=&quot;font-size: 16px;&quot;&gt;&lt;font style=&quot;font-size: 16px;&quot;&gt;Коннектор&lt;/font&gt;&lt;/b&gt;&lt;div style=&quot;font-size: 16px;&quot;&gt;&lt;b&gt;&lt;font style=&quot;font-size: 16px;&quot;&gt;с базой&amp;nbsp;&lt;/font&gt;&lt;/b&gt;&lt;/div&gt;&lt;div style=&quot;font-size: 16px;&quot;&gt;&lt;b style=&quot;&quot;&gt;&lt;font style=&quot;font-size: 16px;&quot;&gt;данных&lt;/font&gt;&lt;/b&gt;&lt;/div&gt;" style="align=center;overflow=fill;html=1;dropTarget=0;whiteSpace=wrap;fillColor=#ffe6cc;strokeColor=#d79b00;verticalAlign=middle;labelPosition=center;verticalLabelPosition=middle;spacingTop=12;horizontal=1;" vertex="1" parent="1">
          <mxGeometry x="500" y="370" width="150" height="70" as="geometry" />
        </mxCell>
        <mxCell id="DRShkaIXmZ3_rg7SGFlZ-17" value="" style="shape=component;jettyWidth=8;jettyHeight=4;" vertex="1" parent="DRShkaIXmZ3_rg7SGFlZ-16">
          <mxGeometry x="1" width="20" height="20" relative="1" as="geometry">
            <mxPoint x="-24" y="4" as="offset" />
          </mxGeometry>
        </mxCell>
        <mxCell id="DRShkaIXmZ3_rg7SGFlZ-18" value="База&lt;div&gt;данных&lt;/div&gt;" style="align=center;overflow=fill;html=1;dropTarget=0;whiteSpace=wrap;fillColor=#ffe6cc;strokeColor=#d79b00;verticalAlign=middle;labelPosition=center;verticalLabelPosition=middle;spacingTop=12;horizontal=1;fontStyle=1;fontSize=16;" vertex="1" parent="1">
          <mxGeometry x="827" y="370" width="150" height="70" as="geometry" />
        </mxCell>
        <mxCell id="DRShkaIXmZ3_rg7SGFlZ-19" value="" style="shape=component;jettyWidth=8;jettyHeight=4;" vertex="1" parent="DRShkaIXmZ3_rg7SGFlZ-18">
          <mxGeometry x="1" width="20" height="20" relative="1" as="geometry">
            <mxPoint x="-24" y="4" as="offset" />
          </mxGeometry>
        </mxCell>
        <mxCell id="DRShkaIXmZ3_rg7SGFlZ-20" value="&lt;b style=&quot;font-size: 16px;&quot;&gt;&lt;font style=&quot;font-size: 16px;&quot;&gt;Валидатор&amp;nbsp;&lt;/font&gt;&lt;/b&gt;&lt;div style=&quot;font-size: 16px;&quot;&gt;&lt;b&gt;&lt;font style=&quot;font-size: 16px;&quot;&gt;на уровне&lt;/font&gt;&lt;/b&gt;&lt;/div&gt;&lt;div style=&quot;font-size: 16px;&quot;&gt;&lt;b style=&quot;&quot;&gt;&lt;font style=&quot;font-size: 16px;&quot;&gt;сервера&lt;/font&gt;&lt;/b&gt;&lt;/div&gt;" style="align=center;overflow=fill;html=1;dropTarget=0;whiteSpace=wrap;fillColor=#ffe6cc;strokeColor=#d79b00;verticalAlign=middle;labelPosition=center;verticalLabelPosition=middle;spacingTop=12;horizontal=1;" vertex="1" parent="1">
          <mxGeometry x="115" y="560" width="150" height="70" as="geometry" />
        </mxCell>
        <mxCell id="DRShkaIXmZ3_rg7SGFlZ-21" value="" style="shape=component;jettyWidth=8;jettyHeight=4;" vertex="1" parent="DRShkaIXmZ3_rg7SGFlZ-20">
          <mxGeometry x="1" width="20" height="20" relative="1" as="geometry">
            <mxPoint x="-24" y="4" as="offset" />
          </mxGeometry>
        </mxCell>
        <mxCell id="DRShkaIXmZ3_rg7SGFlZ-22" value="&lt;b&gt;&lt;font style=&quot;font-size: 16px;&quot;&gt;JWT-токены&lt;/font&gt;&lt;/b&gt;" style="align=center;overflow=fill;html=1;dropTarget=0;whiteSpace=wrap;fillColor=#ffe6cc;strokeColor=#d79b00;verticalAlign=middle;labelPosition=center;verticalLabelPosition=middle;spacingTop=12;horizontal=1;" vertex="1" parent="1">
          <mxGeometry x="500" y="560" width="150" height="70" as="geometry" />
        </mxCell>
        <mxCell id="DRShkaIXmZ3_rg7SGFlZ-23" value="" style="shape=component;jettyWidth=8;jettyHeight=4;" vertex="1" parent="DRShkaIXmZ3_rg7SGFlZ-22">
          <mxGeometry x="1" width="20" height="20" relative="1" as="geometry">
            <mxPoint x="-24" y="4" as="offset" />
          </mxGeometry>
        </mxCell>
        <mxCell id="DRShkaIXmZ3_rg7SGFlZ-24" value="&lt;font style=&quot;font-size: 16px;&quot;&gt;&lt;b&gt;Коннектор&amp;nbsp;&lt;/b&gt;&lt;/font&gt;&lt;div style=&quot;font-size: 16px;&quot;&gt;&lt;font style=&quot;font-size: 16px;&quot;&gt;&lt;b&gt;с почтовым&lt;/b&gt;&lt;/font&gt;&lt;/div&gt;&lt;div style=&quot;font-size: 16px;&quot;&gt;&lt;font style=&quot;font-size: 16px;&quot;&gt;&lt;b&gt;сервисом&lt;/b&gt;&lt;/font&gt;&lt;/div&gt;" style="align=center;overflow=fill;html=1;dropTarget=0;whiteSpace=wrap;fillColor=#ffe6cc;strokeColor=#d79b00;verticalAlign=middle;labelPosition=center;verticalLabelPosition=middle;spacingTop=12;horizontal=1;" vertex="1" parent="1">
          <mxGeometry x="-270" y="560" width="150" height="70" as="geometry" />
        </mxCell>
        <mxCell id="DRShkaIXmZ3_rg7SGFlZ-25" value="" style="shape=component;jettyWidth=8;jettyHeight=4;" vertex="1" parent="DRShkaIXmZ3_rg7SGFlZ-24">
          <mxGeometry x="1" width="20" height="20" relative="1" as="geometry">
            <mxPoint x="-24" y="4" as="offset" />
          </mxGeometry>
        </mxCell>
        <mxCell id="DRShkaIXmZ3_rg7SGFlZ-28" value="" style="shape=providedRequiredInterface;html=1;verticalLabelPosition=bottom;sketch=0;" vertex="1" parent="1">
          <mxGeometry x="384" y="390" width="31" height="30" as="geometry" />
        </mxCell>
        <mxCell id="DRShkaIXmZ3_rg7SGFlZ-29" value="" style="endArrow=none;html=1;rounded=0;exitX=1;exitY=0.5;exitDx=0;exitDy=0;entryX=0;entryY=0.5;entryDx=0;entryDy=0;entryPerimeter=0;" edge="1" parent="1" source="DRShkaIXmZ3_rg7SGFlZ-13" target="DRShkaIXmZ3_rg7SGFlZ-28">
          <mxGeometry width="50" height="50" relative="1" as="geometry">
            <mxPoint x="310" y="360" as="sourcePoint" />
            <mxPoint x="360" y="310" as="targetPoint" />
          </mxGeometry>
        </mxCell>
        <mxCell id="DRShkaIXmZ3_rg7SGFlZ-30" value="" style="endArrow=none;html=1;rounded=0;exitX=1;exitY=0.5;exitDx=0;exitDy=0;exitPerimeter=0;entryX=0;entryY=0.5;entryDx=0;entryDy=0;" edge="1" parent="1" source="DRShkaIXmZ3_rg7SGFlZ-28" target="DRShkaIXmZ3_rg7SGFlZ-16">
          <mxGeometry width="50" height="50" relative="1" as="geometry">
            <mxPoint x="310" y="360" as="sourcePoint" />
            <mxPoint x="360" y="310" as="targetPoint" />
          </mxGeometry>
        </mxCell>
        <mxCell id="DRShkaIXmZ3_rg7SGFlZ-31" value="" style="endArrow=none;html=1;rounded=0;exitX=1;exitY=0.5;exitDx=0;exitDy=0;entryX=0;entryY=0.5;entryDx=0;entryDy=0;entryPerimeter=0;" edge="1" parent="1" source="DRShkaIXmZ3_rg7SGFlZ-16" target="DRShkaIXmZ3_rg7SGFlZ-32">
          <mxGeometry width="50" height="50" relative="1" as="geometry">
            <mxPoint x="630" y="360" as="sourcePoint" />
            <mxPoint x="680" y="310" as="targetPoint" />
          </mxGeometry>
        </mxCell>
        <mxCell id="DRShkaIXmZ3_rg7SGFlZ-32" value="" style="shape=providedRequiredInterface;html=1;verticalLabelPosition=bottom;sketch=0;" vertex="1" parent="1">
          <mxGeometry x="730" y="390" width="31" height="30" as="geometry" />
        </mxCell>
        <mxCell id="DRShkaIXmZ3_rg7SGFlZ-33" value="" style="endArrow=none;html=1;rounded=0;exitX=1;exitY=0.5;exitDx=0;exitDy=0;exitPerimeter=0;entryX=0;entryY=0.5;entryDx=0;entryDy=0;" edge="1" parent="1" source="DRShkaIXmZ3_rg7SGFlZ-32" target="DRShkaIXmZ3_rg7SGFlZ-18">
          <mxGeometry width="50" height="50" relative="1" as="geometry">
            <mxPoint x="630" y="360" as="sourcePoint" />
            <mxPoint x="680" y="310" as="targetPoint" />
          </mxGeometry>
        </mxCell>
        <mxCell id="DRShkaIXmZ3_rg7SGFlZ-35" value="" style="shape=providedRequiredInterface;html=1;verticalLabelPosition=bottom;sketch=0;rotation=90;" vertex="1" parent="1">
          <mxGeometry x="175" y="490" width="31" height="30" as="geometry" />
        </mxCell>
        <mxCell id="DRShkaIXmZ3_rg7SGFlZ-36" value="" style="endArrow=none;html=1;rounded=0;entryX=0;entryY=0.5;entryDx=0;entryDy=0;entryPerimeter=0;exitX=0.5;exitY=1;exitDx=0;exitDy=0;" edge="1" parent="1" source="DRShkaIXmZ3_rg7SGFlZ-13" target="DRShkaIXmZ3_rg7SGFlZ-35">
          <mxGeometry width="50" height="50" relative="1" as="geometry">
            <mxPoint x="120" y="560" as="sourcePoint" />
            <mxPoint x="170" y="510" as="targetPoint" />
          </mxGeometry>
        </mxCell>
        <mxCell id="DRShkaIXmZ3_rg7SGFlZ-37" value="" style="endArrow=none;html=1;rounded=0;entryX=1;entryY=0.5;entryDx=0;entryDy=0;entryPerimeter=0;exitX=0.5;exitY=0;exitDx=0;exitDy=0;" edge="1" parent="1" source="DRShkaIXmZ3_rg7SGFlZ-20" target="DRShkaIXmZ3_rg7SGFlZ-35">
          <mxGeometry width="50" height="50" relative="1" as="geometry">
            <mxPoint x="120" y="560" as="sourcePoint" />
            <mxPoint x="170" y="510" as="targetPoint" />
          </mxGeometry>
        </mxCell>
        <mxCell id="DRShkaIXmZ3_rg7SGFlZ-38" value="" style="shape=providedRequiredInterface;html=1;verticalLabelPosition=bottom;sketch=0;rotation=-225;" vertex="1" parent="1">
          <mxGeometry y="480" width="31" height="30" as="geometry" />
        </mxCell>
        <mxCell id="DRShkaIXmZ3_rg7SGFlZ-40" value="" style="endArrow=none;html=1;rounded=0;entryX=0;entryY=1;entryDx=0;entryDy=0;exitX=0;exitY=0.5;exitDx=0;exitDy=0;exitPerimeter=0;" edge="1" parent="1" source="DRShkaIXmZ3_rg7SGFlZ-38" target="DRShkaIXmZ3_rg7SGFlZ-13">
          <mxGeometry width="50" height="50" relative="1" as="geometry">
            <mxPoint x="120" y="560" as="sourcePoint" />
            <mxPoint x="170" y="510" as="targetPoint" />
          </mxGeometry>
        </mxCell>
        <mxCell id="DRShkaIXmZ3_rg7SGFlZ-41" value="" style="endArrow=none;html=1;rounded=0;entryX=1.038;entryY=0.68;entryDx=0;entryDy=0;entryPerimeter=0;exitX=1;exitY=0;exitDx=0;exitDy=0;" edge="1" parent="1" source="DRShkaIXmZ3_rg7SGFlZ-24" target="DRShkaIXmZ3_rg7SGFlZ-38">
          <mxGeometry width="50" height="50" relative="1" as="geometry">
            <mxPoint x="120" y="560" as="sourcePoint" />
            <mxPoint x="170" y="510" as="targetPoint" />
          </mxGeometry>
        </mxCell>
        <mxCell id="DRShkaIXmZ3_rg7SGFlZ-42" value="" style="shape=providedRequiredInterface;html=1;verticalLabelPosition=bottom;sketch=0;rotation=30;" vertex="1" parent="1">
          <mxGeometry x="353" y="480" width="31" height="30" as="geometry" />
        </mxCell>
        <mxCell id="DRShkaIXmZ3_rg7SGFlZ-43" value="" style="endArrow=none;html=1;rounded=0;exitX=1;exitY=1;exitDx=0;exitDy=0;entryX=0;entryY=0.5;entryDx=0;entryDy=0;entryPerimeter=0;" edge="1" parent="1" source="DRShkaIXmZ3_rg7SGFlZ-13" target="DRShkaIXmZ3_rg7SGFlZ-42">
          <mxGeometry width="50" height="50" relative="1" as="geometry">
            <mxPoint x="350" y="560" as="sourcePoint" />
            <mxPoint x="400" y="510" as="targetPoint" />
          </mxGeometry>
        </mxCell>
        <mxCell id="DRShkaIXmZ3_rg7SGFlZ-44" value="" style="endArrow=none;html=1;rounded=0;exitX=1;exitY=0.5;exitDx=0;exitDy=0;exitPerimeter=0;entryX=0;entryY=0;entryDx=0;entryDy=0;" edge="1" parent="1" source="DRShkaIXmZ3_rg7SGFlZ-42" target="DRShkaIXmZ3_rg7SGFlZ-22">
          <mxGeometry width="50" height="50" relative="1" as="geometry">
            <mxPoint x="350" y="560" as="sourcePoint" />
            <mxPoint x="400" y="510" as="targetPoint" />
          </mxGeometry>
        </mxCell>
      </root>
    </mxGraphModel>
  </diagram>
</mxfile>
